<svg width="24" height="24" viewBox="0 0 24 24" fill="none" xmlns="http://www.w3.org/2000/svg">
<path fill-rule="evenodd" clip-rule="evenodd" d="M7 3C7.55228 3 8 3.44772 8 4H16C16 3.44772 16.4477 3 17 3C17.5523 3 18 3.44772 18 4H19C19.5304 4 20.0391 4.21071 20.4142 4.58579C20.7893 4.96086 21 5.46957 21 6V19C21 19.5304 20.7893 20.0391 20.4142 20.4142C20.0391 20.7893 19.5304 21 19 21H5C4.46957 21 3.96086 20.7893 3.58579 20.4142C3.21071 20.0391 3 19.5304 3 19V6C3 5.46957 3.21071 4.96086 3.58579 4.58579C3.96086 4.21071 4.46957 4 5 4H6C6 3.44772 6.44772 3 7 3ZM6 19C5.5286 19 5.29289 19 5.14645 18.8536C5 18.7071 5 18.4714 5 18V10H19V18C19 18.4714 19 18.7071 18.8536 18.8536C18.7071 19 18.4714 19 18 19H6ZM19 8H5C5 6.5 5 6 6 6H18C19 6 19 6.5 19 8Z" fill="#1976d2"/>
<path d="M6 11.5C6 11.2239 6.22386 11 6.5 11H8C8.27614 11 8.5 11.2239 8.5 11.5V13C8.5 13.2761 8.27614 13.5 8 13.5H6.5C6.22386 13.5 6 13.2761 6 13V11.5Z" fill="#1976d2"/>
</svg>
